<?xml version="1.0" encoding="iso-8859-1"?>
<!-- Generator: Adobe Illustrator 17.1.0, SVG Export Plug-In . SVG Version: 6.00 Build 0)  -->
<!DOCTYPE svg PUBLIC "-//W3C//DTD SVG 1.1//EN" "http://www.w3.org/Graphics/SVG/1.1/DTD/svg11.dtd">
<svg xmlns="http://www.w3.org/2000/svg" xmlns:xlink="http://www.w3.org/1999/xlink" version="1.1" id="Capa_1" x="0px" y="0px" viewBox="0 0 221.307 221.307" style="enable-background:new 0 0 221.307 221.307;" xml:space="preserve" width="512px" height="512px">
<path d="M193.346,13.998H27.96C12.543,13.998,0,26.339,0,41.51v95.208v2.979v51.699c0,8.774,7.223,15.913,16.102,15.913h12.27  c8.879,0,16.102-7.139,16.102-15.913V160.31h14.472v31.086c0,8.774,7.223,15.913,16.102,15.913h12.27  c8.879,0,16.102-7.139,16.102-15.913V160.31h14.473v31.086c0,8.774,7.223,15.913,16.101,15.913h12.271  c8.878,0,16.101-7.139,16.101-15.913V160.31h14.473v31.086c0,8.774,7.223,15.913,16.102,15.913h12.27  c8.879,0,16.102-7.139,16.102-15.913v-51.699v-2.979V41.51C221.307,26.339,208.764,13.998,193.346,13.998z M42.558,54.105h98.548  c4.143,0,7.5,3.357,7.5,7.5s-3.357,7.5-7.5,7.5H42.558c-4.143,0-7.5-3.357-7.5-7.5S38.415,54.105,42.558,54.105z M157.442,107.124  H42.558c-4.143,0-7.5-3.357-7.5-7.5s3.357-7.5,7.5-7.5h114.885c4.143,0,7.5,3.357,7.5,7.5S161.585,107.124,157.442,107.124z" fill="#696969"/>
<g>
</g>
<g>
</g>
<g>
</g>
<g>
</g>
<g>
</g>
<g>
</g>
<g>
</g>
<g>
</g>
<g>
</g>
<g>
</g>
<g>
</g>
<g>
</g>
<g>
</g>
<g>
</g>
<g>
</g>
</svg>
