<?xml version="1.0" encoding="iso-8859-1"?>
<!-- Generator: Adobe Illustrator 18.0.0, SVG Export Plug-In . SVG Version: 6.00 Build 0)  -->
<!DOCTYPE svg PUBLIC "-//W3C//DTD SVG 1.1//EN" "http://www.w3.org/Graphics/SVG/1.1/DTD/svg11.dtd">
<svg xmlns="http://www.w3.org/2000/svg" xmlns:xlink="http://www.w3.org/1999/xlink" version="1.1" id="Capa_1" x="0px" y="0px" viewBox="0 0 202.863 202.863" style="enable-background:new 0 0 202.863 202.863;" xml:space="preserve" width="512px" height="512px">
<path d="M93.327,67.636h16.21v16.21h-16.21V67.636z M202.863,9.568v132.349c0,4.494-3.643,8.136-8.136,8.136H47.225L0,201.431  v-59.505c0-0.003,0-0.006,0-0.01V9.568c0-4.494,3.642-8.136,8.138-8.136h186.589C199.22,1.431,202.863,5.073,202.863,9.568z   M143.838,50.959h-17.623V33.335h-16.679v17.625h-16.21V33.335H76.648v17.625H59.024v16.677h17.624v16.21H59.024v16.679h17.624  v17.625h16.679v-17.625h16.21v17.625h16.679v-17.625h17.623V83.846h-17.623v-16.21h17.623V50.959z" fill="#5e5e5e"/>
<g>
</g>
<g>
</g>
<g>
</g>
<g>
</g>
<g>
</g>
<g>
</g>
<g>
</g>
<g>
</g>
<g>
</g>
<g>
</g>
<g>
</g>
<g>
</g>
<g>
</g>
<g>
</g>
<g>
</g>
</svg>
